<?xml version="1.0" encoding="UTF-8"?>
<svg width="980px" height="605px" viewBox="0 0 980 605" version="1.1" xmlns="http://www.w3.org/2000/svg" xmlns:xlink="http://www.w3.org/1999/xlink">
    <!-- Generator: Sketch 49.2 (51160) - http://www.bohemiancoding.com/sketch -->
    <title>logo</title>
    <desc>Created with Sketch.</desc>
    <defs></defs>
    <g id="Page-1" stroke="none" stroke-width="1" fill="none" fill-rule="evenodd">
        <g id="Group" transform="translate(362.000000, 155.000000)">
            <g id="noun_16476_cc" transform="translate(62.000000, 52.000000)" fill="#2B303A">
                <path d="M129.364767,59.4591258 L119.368717,50.4904132 L123.576291,37.696058 L111.085467,32.8157174 L110.693539,19.3617035 L97.2813079,18.9666643 L92.2842247,6.43503847 L79.5277191,10.6557203 L70.5868596,0.5 L60.0688663,8.94136364 L48.2356528,2.4789762 L41.2657393,13.9559041 L27.8535079,11.9769279 L25.2230674,25.1663223 L12.0727494,27.937267 L14.0436955,41.2589712 L2.47239551,48.3810174 L8.91471348,60.2510943 L0.631464045,70.8037439 L10.7556449,79.6420369 L6.41617191,92.4363921 L18.9088798,97.4490425 L19.3026921,110.901166 L32.7149236,111.298096 L37.5801079,123.829721 L50.3347292,119.60904 L59.2755888,129.76476 L69.9273652,121.191086 L81.7605787,127.655364 L88.7304921,116.180326 L102.00894,118.159303 L104.639381,104.968018 L117.919713,102.329383 L115.948767,89.0076788 L127.386284,81.8856327 L120.943966,70.0136656 L129.364767,59.4591258 L129.364767,59.4591258 Z M88.0766506,96.129725 L41.5276528,96.129725 L41.5276528,91.7767334 C42.6563303,91.6992377 44.3220247,91.5536969 46.7885337,91.2493844 C49.2531584,90.945072 51.0130663,90.6275285 51.9175157,90.3251062 C53.0461933,89.9489684 53.9073045,89.3838166 54.5479562,88.4784397 C55.1867236,87.5730628 55.6012629,86.2386243 55.6012629,84.6546872 L55.6012629,48.7760566 L41.2676236,48.7760566 L41.2676236,43.3683671 L44.2918764,43.3683671 C47.5667371,43.3683671 50.4496697,43.0319222 52.8389236,42.3136691 C55.2300618,41.5954161 57.1746281,40.6957096 58.7555303,39.6750342 C60.374118,38.6184461 61.7967416,37.6412439 62.8312056,36.5090503 C63.8675539,35.3768567 64.5967663,34.3448404 65.1978483,33.4753762 L75.0601157,33.4753762 C74.9470596,35.9287774 74.9093742,38.765877 74.7944337,42.0490496 C74.6832618,45.3341123 74.6663034,48.28084 74.6663034,50.8854524 L74.6663034,83.9931384 C74.6663034,85.3521488 74.8698045,86.5523874 75.4539281,87.5541614 C76.0380517,88.5559355 76.9914921,89.4008279 78.0843685,89.9281768 C79.0641888,90.3799202 80.6545124,90.7371566 82.9495528,91.1151845 C85.2464775,91.4913223 86.9856584,91.6992377 88.0785348,91.7748433 L88.0785348,96.129725 L88.0766506,96.129725 Z" id="Shape"></path>
                <polygon id="Shape" points="90.9690045 121.586126 83.2114663 134.378591 70.0649169 127.256545 58.3598337 136.489877 48.4975663 125.279459 34.2977101 130.159799 28.7730315 116.046126 22.5945112 115.915707 22.5945112 115.913817 1.42474157 171.17961 32.7186921 165.90423 49.0232775 189.513964 62.3054944 155.21927 72.9553865 185.822521 90.0475966 162.738246 121.211533 168.807484 105.302644 123.695522"></polygon>
            </g>
            <polygon id="Mask" stroke="#2B303A" stroke-width="7" points="127.299363 0 254.598726 73.4963215 254.598726 220.488964 127.299363 293.985286 6.03961325e-14 220.488964 -2.13162821e-14 73.4963215"></polygon>
        </g>
    </g>
</svg>