<?xml version="1.0" encoding="UTF-8" standalone="no"?>
<svg width="514px" height="514px" viewBox="0 0 514 514" version="1.1" xmlns="http://www.w3.org/2000/svg" xmlns:xlink="http://www.w3.org/1999/xlink" xmlns:sketch="http://www.bohemiancoding.com/sketch/ns">
    <!-- Generator: Sketch 3.3.3 (12072) - http://www.bohemiancoding.com/sketch -->
    <title>Oval 1</title>
    <desc>Created with Sketch.</desc>
    <defs></defs>
    <g id="Page-1" stroke="none" stroke-width="1" fill="none" fill-rule="evenodd" sketch:type="MSPage">
        <circle id="Oval-1" stroke="#333D45" sketch:type="MSShapeGroup" cx="257" cy="257" r="256"></circle>
        <g id="noun_16476_cc" sketch:type="MSLayerGroup" transform="translate(128.000000, 68.000000)">
            <path d="M257.729535,117.918252 L237.737434,99.9808264 L246.152582,74.392116 L221.170935,64.6314349 L220.387079,37.723407 L193.562616,36.9333286 L183.568449,11.8700769 L158.055438,20.3114406 L140.173719,0 L119.137733,16.8827273 L95.4713056,3.95795241 L81.5314787,26.9118082 L54.7070157,22.9538558 L49.4461348,49.3326446 L23.1454989,54.8745341 L27.087391,81.5179424 L3.94479101,95.7620348 L16.829427,119.502189 L0.26292809,140.607488 L20.5112899,158.284074 L11.8323438,183.872784 L36.8177596,193.898085 L37.6053843,220.802333 L64.4298472,221.596191 L74.1602157,246.659443 L99.6694584,238.218079 L117.551178,258.52952 L138.85473,241.382173 L162.521157,254.310728 L176.460984,231.360653 L203.017881,235.318605 L208.278762,208.936036 L234.839427,203.658766 L230.897535,177.015358 L253.772569,162.771265 L240.887933,139.027331 L257.729535,117.918252 L257.729535,117.918252 Z M175.153301,191.25945 L82.0553056,191.25945 L82.0553056,182.553467 C84.3126607,182.398475 87.6440494,182.107394 92.5770674,181.498769 C97.5063169,180.890144 101.026133,180.255057 102.835031,179.650212 C105.092387,178.897937 106.814609,177.767633 108.095912,175.956879 C109.373447,174.146126 110.202526,171.477249 110.202526,168.309374 L110.202526,96.5521131 L81.5352472,96.5521131 L81.5352472,85.7367341 L87.5837528,85.7367341 C94.1334742,85.7367341 99.8993393,85.0638444 104.677847,83.6273383 C109.460124,82.1908321 113.349256,80.3914192 116.511061,78.3500684 C119.748236,76.2368923 122.593483,74.2824879 124.662411,72.0181006 C126.735108,69.7537133 128.193533,67.6896808 129.395697,65.9507524 L149.120231,65.9507524 C148.894119,70.8575549 148.818748,76.5317541 148.588867,83.0980992 C148.366524,89.6682246 148.332607,95.56168 148.332607,100.770905 L148.332607,166.986277 C148.332607,169.704298 148.739609,172.104775 149.907856,174.108323 C151.076103,176.111871 152.982984,177.801656 155.168737,178.856354 C157.128378,179.75984 160.309025,180.474313 164.899106,181.230369 C169.492955,181.982645 172.971317,182.398475 175.15707,182.549687 L175.15707,191.25945 L175.153301,191.25945 Z" id="Shape" fill="#EBCB8B" sketch:type="MSShapeGroup"></path>
            <path d="M180.938009,242.172251 L165.422933,267.757182 L139.129834,253.513089 L115.719667,271.979753 L95.9951326,249.558917 L67.5954202,259.319598 L56.5460629,231.092253 L44.1890225,230.831414 L44.1890225,230.827633 L1.84948315,341.359219 L64.4373843,330.80846 L97.0465551,378.027928 L123.610989,309.438541 L144.910773,370.645043 L179.095193,324.476492 L241.423065,336.614969 L209.605288,246.391043 L180.938009,242.172251 Z" id="Shape" fill="#BF616A" sketch:type="MSShapeGroup"></path>
        </g>
    </g>
</svg>