<?xml version="1.0" encoding="UTF-8" standalone="no"?>
<svg width="790px" height="400px" viewBox="0 0 790 400" version="1.1" xmlns="http://www.w3.org/2000/svg" xmlns:xlink="http://www.w3.org/1999/xlink" xmlns:sketch="http://www.bohemiancoding.com/sketch/ns">
    <!-- Generator: Sketch 3.3.3 (12072) - http://www.bohemiancoding.com/sketch -->
    <title>Oval 1</title>
    <desc>Created with Sketch.</desc>
    <defs></defs>
    <g id="Page-1" stroke="none" stroke-width="1" fill="none" fill-rule="evenodd" sketch:type="MSPage">
        <g id="noun_16476_cc" sketch:type="MSLayerGroup" transform="translate(267.000000, 72.000000)">
            <path d="M192.364767,92.4591258 L182.368717,83.4904132 L186.576291,70.696058 L174.085467,65.8157174 L173.693539,52.3617035 L160.281308,51.9666643 L155.284225,39.4350385 L142.527719,43.6557203 L133.58686,33.5 L123.068866,41.9413636 L111.235653,35.4789762 L104.265739,46.9559041 L90.8535079,44.9769279 L88.2230674,58.1663223 L75.0727494,60.937267 L77.0436955,74.2589712 L65.4723955,81.3810174 L71.9147135,93.2510943 L63.631464,103.803744 L73.7556449,112.642037 L69.4161719,125.436392 L81.9088798,130.449042 L82.3026921,143.901166 L95.7149236,144.298096 L100.580108,156.829721 L113.334729,152.60904 L122.275589,162.76476 L132.927365,154.191086 L144.760579,160.655364 L151.730492,149.180326 L165.00894,151.159303 L167.639381,137.968018 L180.919713,135.329383 L178.948767,122.007679 L190.386284,114.885633 L183.943966,103.013666 L192.364767,92.4591258 L192.364767,92.4591258 Z M151.076651,129.129725 L104.527653,129.129725 L104.527653,124.776733 C105.65633,124.699238 107.322025,124.553697 109.788534,124.249384 C112.253158,123.945072 114.013066,123.627528 114.917516,123.325106 C116.046193,122.948968 116.907304,122.383817 117.547956,121.47844 C118.186724,120.573063 118.601263,119.238624 118.601263,117.654687 L118.601263,81.7760566 L104.267624,81.7760566 L104.267624,76.3683671 L107.291876,76.3683671 C110.566737,76.3683671 113.44967,76.0319222 115.838924,75.3136691 C118.230062,74.5954161 120.174628,73.6957096 121.75553,72.6750342 C123.374118,71.6184461 124.796742,70.6412439 125.831206,69.5090503 C126.867554,68.3768567 127.596766,67.3448404 128.197848,66.4753762 L138.060116,66.4753762 C137.94706,68.9287774 137.909374,71.765877 137.794434,75.0490496 C137.683262,78.3341123 137.666303,81.28084 137.666303,83.8854524 L137.666303,116.993138 C137.666303,118.352149 137.869804,119.552387 138.453928,120.554161 C139.038052,121.555935 139.991492,122.400828 141.084369,122.928177 C142.064189,123.37992 143.654512,123.737157 145.949553,124.115185 C148.246478,124.491322 149.985658,124.699238 151.078535,124.774843 L151.078535,129.129725 L151.076651,129.129725 Z" id="Shape" fill="#EBCB8B" sketch:type="MSShapeGroup"></path>
            <path d="M153.969004,154.586126 L146.211466,167.378591 L133.064917,160.256545 L121.359834,169.489877 L111.497566,158.279459 L97.2977101,163.159799 L91.7730315,149.046126 L85.5945112,148.915707 L85.5945112,148.913817 L64.4247416,204.17961 L95.7186921,198.90423 L112.023278,222.513964 L125.305494,188.21927 L135.955387,218.822521 L153.047597,195.738246 L184.211533,201.807484 L168.302644,156.695522 L153.969004,154.586126 Z" id="Shape" fill="#BF616A" sketch:type="MSShapeGroup"></path>
            <circle id="Oval-1" stroke="#333D45" sketch:type="MSShapeGroup" cx="128" cy="128" r="128"></circle>
        </g>
    </g>
</svg>